<svg width="59" height="19" viewBox="0 0 59 19" fill="none" xmlns="http://www.w3.org/2000/svg">
<path d="M0.679993 18V0.720001H3.57199V7.992H11.756V0.720001H14.636V18H11.756V10.704H3.57199V18H0.679993ZM21.6243 18.36C20.6883 18.36 19.8963 18.184 19.2483 17.832C18.6003 17.472 18.1083 16.996 17.7723 16.404C17.4443 15.812 17.2803 15.16 17.2803 14.448C17.2803 13.824 17.3843 13.264 17.5923 12.768C17.8003 12.264 18.1203 11.832 18.5523 11.472C18.9843 11.104 19.5443 10.804 20.2323 10.572C20.7523 10.404 21.3603 10.252 22.0563 10.116C22.7603 9.98 23.5203 9.856 24.3363 9.744C25.1603 9.624 26.0203 9.496 26.9163 9.36L25.8843 9.948C25.8923 9.052 25.6923 8.392 25.2843 7.968C24.8763 7.544 24.1883 7.332 23.2203 7.332C22.6363 7.332 22.0723 7.468 21.5283 7.74C20.9843 8.012 20.6043 8.48 20.3883 9.144L17.7483 8.316C18.0683 7.22 18.6763 6.34 19.5723 5.676C20.4763 5.012 21.6923 4.68 23.2203 4.68C24.3723 4.68 25.3843 4.868 26.2563 5.244C27.1363 5.62 27.7883 6.236 28.2123 7.092C28.4443 7.548 28.5843 8.016 28.6323 8.496C28.6803 8.968 28.7043 9.484 28.7043 10.044V18H26.1723V15.192L26.5923 15.648C26.0083 16.584 25.3243 17.272 24.5403 17.712C23.7643 18.144 22.7923 18.36 21.6243 18.36ZM22.2003 16.056C22.8563 16.056 23.4163 15.94 23.8803 15.708C24.3443 15.476 24.7123 15.192 24.9843 14.856C25.2643 14.52 25.4523 14.204 25.5483 13.908C25.7003 13.54 25.7843 13.12 25.8003 12.648C25.8243 12.168 25.8363 11.78 25.8363 11.484L26.7243 11.748C25.8523 11.884 25.1043 12.004 24.4803 12.108C23.8563 12.212 23.3203 12.312 22.8723 12.408C22.4243 12.496 22.0283 12.596 21.6843 12.708C21.3483 12.828 21.0643 12.968 20.8323 13.128C20.6003 13.288 20.4203 13.472 20.2923 13.68C20.1723 13.888 20.1123 14.132 20.1123 14.412C20.1123 14.732 20.1923 15.016 20.3523 15.264C20.5123 15.504 20.7443 15.696 21.0483 15.84C21.3603 15.984 21.7443 16.056 22.2003 16.056ZM40.7924 18V11.76C40.7924 11.352 40.7644 10.9 40.7084 10.404C40.6524 9.908 40.5204 9.432 40.3124 8.976C40.1124 8.512 39.8084 8.132 39.4004 7.836C39.0004 7.54 38.4564 7.392 37.7684 7.392C37.4004 7.392 37.0364 7.452 36.6764 7.572C36.3164 7.692 35.9884 7.9 35.6924 8.196C35.4044 8.484 35.1724 8.884 34.9964 9.396C34.8204 9.9 34.7324 10.548 34.7324 11.34L33.0164 10.608C33.0164 9.504 33.2284 8.504 33.6524 7.608C34.0844 6.712 34.7164 6 35.5484 5.472C36.3804 4.936 37.4044 4.668 38.6204 4.668C39.5804 4.668 40.3724 4.828 40.9964 5.148C41.6204 5.468 42.1164 5.876 42.4844 6.372C42.8524 6.868 43.1244 7.396 43.3004 7.956C43.4764 8.516 43.5884 9.048 43.6364 9.552C43.6924 10.048 43.7204 10.452 43.7204 10.764V18H40.7924ZM31.8044 18V5.04H34.3844V9.06H34.7324V18H31.8044ZM51.8369 18.36C50.6449 18.36 49.6049 18.06 48.7169 17.46C47.8289 16.86 47.1409 16.044 46.6529 15.012C46.1649 13.98 45.9209 12.816 45.9209 11.52C45.9209 10.208 46.1649 9.04 46.6529 8.016C47.1489 6.984 47.8489 6.172 48.7529 5.58C49.6569 4.98 50.7209 4.68 51.9449 4.68C53.1769 4.68 54.2089 4.98 55.0409 5.58C55.8809 6.172 56.5169 6.984 56.9489 8.016C57.3809 9.048 57.5969 10.216 57.5969 11.52C57.5969 12.808 57.3809 13.972 56.9489 15.012C56.5169 16.044 55.8729 16.86 55.0169 17.46C54.1609 18.06 53.1009 18.36 51.8369 18.36ZM52.2809 15.768C53.0569 15.768 53.6809 15.592 54.1529 15.24C54.6329 14.88 54.9809 14.38 55.1969 13.74C55.4209 13.1 55.5329 12.36 55.5329 11.52C55.5329 10.672 55.4209 9.932 55.1969 9.3C54.9809 8.66 54.6409 8.164 54.1769 7.812C53.7129 7.452 53.1129 7.272 52.3769 7.272C51.6009 7.272 50.9609 7.464 50.4569 7.848C49.9529 8.224 49.5809 8.736 49.3409 9.384C49.1009 10.024 48.9809 10.736 48.9809 11.52C48.9809 12.312 49.0969 13.032 49.3289 13.68C49.5689 14.32 49.9329 14.828 50.4209 15.204C50.9089 15.58 51.5289 15.768 52.2809 15.768ZM55.5329 18V8.904H55.1729V0.720001H58.0889V18H55.5329Z" fill="black"/>
</svg>
